<svg width="667" height="297" viewBox="0 0 667 297" fill="none" xmlns="http://www.w3.org/2000/svg">
<line y1="-2.5" x2="28.8821" y2="-2.5" transform="matrix(-0.819152 0.573576 0.573576 0.819152 601.686 51.2617)" stroke="#451F6F" stroke-width="5"/>
<circle r="10" transform="matrix(-1 0 0 1 601.396 45.8628)" fill="#451F6F"/>
<circle r="5" transform="matrix(-1 0 0 1 601.396 45.8628)" fill="white"/>
<path d="M578.396 65.3278L455.747 65.3278" stroke="#451F6F" stroke-width="5"/>
<line y1="-2.5" x2="35" y2="-2.5" transform="matrix(-1 0 0 1 578.396 209.863)" stroke="#451F6F" stroke-width="5"/>
<path d="M616.396 181.363L480.995 181.363" stroke="#451F6F" stroke-width="5"/>
<line y1="-2.5" x2="47.7074" y2="-2.5" transform="matrix(-0.819152 -0.573576 -0.573576 0.819152 543.396 210.227)" stroke="#451F6F" stroke-width="5"/>
<circle r="10" transform="matrix(-1 0 0 1 616.396 180.863)" fill="#451F6F"/>
<circle r="5" transform="matrix(-1 0 0 1 616.396 180.863)" fill="white"/>
<circle r="10" transform="matrix(-1 0 0 1 584.396 205.863)" fill="#451F6F"/>
<circle r="5" transform="matrix(-1 0 0 1 584.396 205.863)" fill="white"/>
<line x1="88.9599" y1="209.179" x2="128.04" y2="181.815" stroke="#451F6F" stroke-width="5"/>
<circle cx="86.3938" cy="211.863" r="10" fill="#451F6F"/>
<circle cx="86.3938" cy="211.863" r="5" fill="white"/>
<circle cx="47.3938" cy="179.863" r="10" fill="#451F6F"/>
<circle cx="47.3938" cy="179.863" r="5" fill="white"/>
<line x1="52.3938" y1="181.363" x2="204.598" y2="181.363" stroke="#451F6F" stroke-width="5"/>
<line x1="11.5382" y1="129.214" x2="35.197" y2="145.78" stroke="#451F6F" stroke-width="5"/>
<circle cx="10.3938" cy="125.863" r="10" fill="#451F6F"/>
<circle cx="10.3938" cy="125.863" r="5" fill="white"/>
<line x1="33.3938" y1="145.363" x2="199.283" y2="145.363" stroke="#451F6F" stroke-width="5"/>
<line x1="468.593" y1="93.9538" x2="605.394" y2="93.9538" stroke="#451F6F" stroke-width="5"/>
<line y1="-2.5" x2="47.7074" y2="-2.5" transform="matrix(0.819152 0.573576 0.573576 -0.819152 557.888 91.8628)" stroke="#451F6F" stroke-width="5"/>
<circle r="10" transform="matrix(1 0 0 -1 592.427 118.545)" fill="#451F6F"/>
<circle r="5" transform="matrix(1 0 0 -1 592.427 118.545)" fill="white"/>
<circle r="10" transform="matrix(1 0 0 -1 606.394 91.8628)" fill="#451F6F"/>
<circle r="5" transform="matrix(1 0 0 -1 606.394 91.8628)" fill="white"/>
<line x1="481.394" y1="143.363" x2="662.397" y2="143.363" stroke="#451F6F" stroke-width="5"/>
<circle cx="656.394" cy="140.863" r="10" fill="#451F6F"/>
<circle cx="656.394" cy="140.863" r="5" fill="white"/>
<line x1="86.3938" y1="119.363" x2="121.394" y2="119.363" stroke="#451F6F" stroke-width="5"/>
<path d="M48.3938 93.3628L216.115 93.3628" stroke="#451F6F" stroke-width="5"/>
<line x1="119.96" y1="120.179" x2="159.04" y2="92.8149" stroke="#451F6F" stroke-width="5"/>
<circle cx="44.3938" cy="91.8628" r="10" fill="#451F6F"/>
<circle cx="44.3938" cy="91.8628" r="5" fill="white"/>
<circle cx="78.3938" cy="117.863" r="10" fill="#451F6F"/>
<circle cx="78.3938" cy="117.863" r="5" fill="white"/>
<line x1="103.392" y1="65.8628" x2="231.618" y2="65.8628" stroke="#451F6F" stroke-width="5"/>
<circle cx="98.3938" cy="63.8628" r="10" fill="#451F6F"/>
<circle cx="98.3938" cy="63.8628" r="5" fill="white"/>
<path fill-rule="evenodd" clip-rule="evenodd" d="M452.583 226.565C467.293 205 475.894 178.936 475.894 150.863C475.894 76.5805 415.676 16.3628 341.394 16.3628C267.112 16.3628 206.894 76.5805 206.894 150.863C206.894 178.936 215.495 205 230.205 226.565H452.583Z" fill="white"/>
<path fill-rule="evenodd" clip-rule="evenodd" d="M453.188 226.565C467.836 204.975 476.394 178.918 476.394 150.863C476.394 76.3044 415.952 15.8629 341.394 15.8629C266.836 15.8629 206.394 76.3044 206.394 150.863C206.394 178.918 214.952 204.975 229.6 226.565H211.87C198.855 204.344 191.394 178.475 191.394 150.863C191.394 68.0201 258.551 0.862854 341.394 0.862854C424.237 0.862854 491.394 68.0201 491.394 150.863C491.394 178.475 483.934 204.344 470.918 226.565H453.188Z" fill="#451F6F"/>
<circle cx="341.394" cy="150.863" r="35" fill="#451F6F"/>
<rect x="316.394" y="136.863" width="168" height="28" fill="#451F6F"/>
<path d="M431.021 114.68L442.189 78.0347L436.75 73.4709L402.601 90.8321L408.614 95.878L416.111 91.9215L427.449 101.435L424.854 109.505L431.021 114.68ZM429.713 94.458L422.589 88.4801L433.447 82.7744L429.713 94.458Z" fill="#451F6F"/>
<path d="M407.119 77.4466L407.169 77.36C410.219 72.0772 408.03 67.8688 402.806 62.7167C398.342 58.3493 397.418 56.9498 398.568 54.958L398.618 54.8714C399.468 53.3991 401.485 53.005 404.04 54.48C406.595 55.955 408.586 58.6058 410.196 62.0178L416.56 58.9948C414.911 54.7517 411.943 51.191 407.527 48.641C401.334 45.066 394.818 46.1533 391.643 51.6526L391.593 51.7392C388.118 57.7581 391.083 61.7218 396.289 66.8057C400.605 71.0297 401.144 72.4957 400.169 74.1845L400.119 74.2711C399.094 76.0464 396.824 76.179 394.096 74.604C390.632 72.604 388.599 69.525 387.171 65.6984L380.505 68.1432C382.268 73.4908 385.976 77.7679 390.566 80.4179C397.104 84.1929 403.644 83.4654 407.119 77.4466Z" fill="#451F6F"/>
<path d="M382.834 50.2097L382.851 50.1112C384.093 43.0698 379.979 37.3181 371.756 35.8681L357.673 33.385L351.595 67.8532L359.178 69.1903L361.002 58.8498L366.763 59.8657C374.494 61.2288 381.427 58.1866 382.834 50.2097ZM375.126 49.0029C374.605 51.9574 371.99 53.8317 368.199 53.1632L362.191 52.1039L364.049 41.5665L369.909 42.5997C373.7 43.2682 375.743 45.5069 375.144 48.9045L375.126 49.0029Z" fill="#451F6F"/>
<path d="M344.489 66.9574L338.411 32.4892L330.237 33.9304L323.747 50.1032L312.117 37.1256L303.943 38.5668L310.02 73.0351L317.456 71.7241L313.514 49.3689L325.686 62.251L325.883 62.2163L332.987 45.783L336.955 68.2858L344.489 66.9574Z" fill="#451F6F"/>
<path d="M299.658 57.0795L299.608 56.9929C294.633 48.3759 283.896 45.2794 274.543 50.6794C265.19 56.0794 262.466 67.0625 267.441 75.6795L267.491 75.7661C272.466 84.383 283.203 87.4795 292.556 82.0795C301.909 76.6795 304.633 65.6964 299.658 57.0795ZM292.736 61.1911C295.736 66.3872 294.462 72.7808 289.093 75.8808C283.723 78.9808 277.413 76.8506 274.413 71.6545L274.363 71.5679C271.363 66.3717 272.637 59.9782 278.006 56.8782C283.376 53.7782 289.686 55.9083 292.686 61.1045L292.736 61.1911Z" fill="#451F6F"/>
<path d="M273.606 93.2149L266.671 92.5727C266.171 96.2554 265.323 99.0559 262.259 101.627C257.662 105.484 251.269 104.321 247.413 99.7249L247.348 99.6483C243.492 95.052 243.598 88.5666 248.117 84.7741C250.798 82.5244 253.869 81.9058 257.512 82.047L257.634 74.5692C253.088 74.2069 248.648 75.0607 243.592 79.3031C235.357 86.213 234.85 97.2772 241.246 104.899L241.31 104.976C247.77 112.675 258.741 113.847 266.631 107.227C271.802 102.888 273.323 98.4782 273.606 93.2149Z" fill="#451F6F"/>
<path d="M237.328 275.864L230.272 268.736C226.312 272.336 222.784 274.64 217.024 274.64C208.384 274.64 202.408 267.44 202.408 258.8V258.656C202.408 250.016 208.528 242.96 217.024 242.96C222.064 242.96 226.024 245.12 229.912 248.648L236.968 240.512C232.288 235.904 226.6 232.736 217.096 232.736C201.616 232.736 190.816 244.472 190.816 258.8V258.944C190.816 273.416 201.832 284.864 216.664 284.864C226.384 284.864 232.144 281.408 237.328 275.864ZM257.796 284V233.6H246.708V284H257.796ZM313.952 284L301.64 266C308.048 263.624 312.44 258.512 312.44 250.376V250.232C312.44 239.864 305.312 233.6 293.432 233.6H270.392V284H281.48V267.872H290.192L300.992 284H313.952ZM301.208 250.952C301.208 255.2 298.112 258.08 292.712 258.08H281.48V243.608H292.496C297.896 243.608 301.208 246.056 301.208 250.808V250.952ZM366.703 275.864L359.647 268.736C355.687 272.336 352.159 274.64 346.399 274.64C337.759 274.64 331.783 267.44 331.783 258.8V258.656C331.783 250.016 337.903 242.96 346.399 242.96C351.439 242.96 355.399 245.12 359.287 248.648L366.343 240.512C361.663 235.904 355.975 232.736 346.471 232.736C330.991 232.736 320.191 244.472 320.191 258.8V258.944C320.191 273.416 331.207 284.864 346.039 284.864C355.759 284.864 361.519 281.408 366.703 275.864ZM418.707 262.04V233.6H407.619V262.472C407.619 270.464 403.515 274.568 396.747 274.568C389.979 274.568 385.875 270.32 385.875 262.112V233.6H374.787V262.4C374.787 277.232 383.067 284.792 396.603 284.792C410.139 284.792 418.707 277.304 418.707 262.04ZM441.593 284V233.6H430.505V284H441.593ZM492.349 243.824V233.6L450.589 233.6V243.824H465.925V284H477.013V243.824H492.349Z" fill="white"/>
<circle cx="252.5" cy="243.5" r="12.5" fill="white"/>
<circle cx="252.5" cy="243.5" r="6.5" fill="#451F6F"/>
<circle cx="436.5" cy="279.5" r="12.5" fill="white"/>
<circle cx="436.5" cy="279.5" r="6.5" fill="#451F6F"/>
</svg>
